<svg width="40" height="40" viewBox="0 0 60 60" fill="none" xmlns="http://www.w3.org/2000/svg">
<rect x="0.5" y="0.5" width="59" height="59" rx="29.5" fill="white" stroke="black"/>
<path d="M40.7568 28.1443H22.058L27.7812 21.2703C28.0488 20.9483 28.1775 20.5332 28.1391 20.1163C28.1007 19.6994 27.8982 19.3148 27.5762 19.0472C27.2542 18.7796 26.8392 18.6509 26.4223 18.6893C26.0053 18.7277 25.6208 18.9302 25.3532 19.2522L17.47 28.7119C17.417 28.7872 17.3696 28.8662 17.3281 28.9484C17.3281 29.0273 17.3281 29.0746 17.2178 29.1534C17.1463 29.3342 17.1089 29.5266 17.1074 29.721C17.1089 29.9154 17.1463 30.1078 17.2178 30.2886C17.2178 30.3674 17.2178 30.4147 17.3281 30.4935C17.3696 30.5757 17.417 30.6548 17.47 30.73L25.3532 40.1898C25.5014 40.3677 25.687 40.5109 25.8969 40.609C26.1067 40.7071 26.3356 40.7577 26.5672 40.7574C26.9356 40.7581 27.2926 40.6298 27.5762 40.3947C27.7359 40.2624 27.8678 40.0998 27.9646 39.9164C28.0613 39.733 28.1209 39.5322 28.1399 39.3257C28.159 39.1192 28.1371 38.911 28.0755 38.713C28.014 38.5149 27.9139 38.331 27.7812 38.1717L22.058 31.2976H40.7568C41.175 31.2976 41.576 31.1315 41.8717 30.8358C42.1673 30.5401 42.3334 30.1391 42.3334 29.721C42.3334 29.3028 42.1673 28.9018 41.8717 28.6061C41.576 28.3105 41.175 28.1443 40.7568 28.1443Z" fill="#231F20"/>
</svg>
