<svg fill="none" height="15" viewBox="0 0 15 15" width="15" xmlns="http://www.w3.org/2000/svg"><g fill="#000"><path d="m7.5 10c-1.24631 0-2.23262-.83511-2.45358-2h4.90716c-.22096 1.16489-1.20727 2-2.45358 2z"/><path clip-rule="evenodd" d="m0 7.5c0-4.14214 3.35786-7.5 7.5-7.5 4.1421 0 7.5 3.35786 7.5 7.5 0 4.1421-3.3579 7.5-7.5 7.5-4.14214 0-7.5-3.3579-7.5-7.5zm4-1.5h1v-1h-1zm.5 1c-.13261 0-.25979.05268-.35355.14645-.09377.09376-.14645.22094-.14645.35355 0 1.97066 1.52934 3.5 3.5 3.5s3.5-1.52934 3.5-3.5c0-.13261-.0527-.25979-.1464-.35355-.0938-.09377-.221-.14645-.3536-.14645zm6.5-1h-1v-1h1z" fill-rule="evenodd"/></g></svg>