<svg fill="none" height="15" viewBox="0 0 15 15" width="15" xmlns="http://www.w3.org/2000/svg"><path d="m4.5 7.5v-.5c-.13261 0-.25979.05268-.35355.14645-.09377.09376-.14645.22094-.14645.35355zm6 0h.5c0-.13261-.0527-.25979-.1464-.35355-.0938-.09377-.221-.14645-.3536-.14645zm0-.5h-6v1h6zm-3 4c1.97066 0 3.5-1.52934 3.5-3.5h-1c0 1.41838-1.08162 2.5-2.5 2.5zm-3.5-3.5c0 1.97066 1.52934 3.5 3.5 3.5v-1c-1.41838 0-2.5-1.08162-2.5-2.5zm3.5 6.5c-3.58985 0-6.5-2.9101-6.5-6.5h-1c0 4.1421 3.35786 7.5 7.5 7.5zm6.5-6.5c0 3.5899-2.9101 6.5-6.5 6.5v1c4.1421 0 7.5-3.3579 7.5-7.5zm-6.5-6.5c3.5899 0 6.5 2.91015 6.5 6.5h1c0-4.14214-3.3579-7.5-7.5-7.5zm0-1c-4.14214 0-7.5 3.35786-7.5 7.5h1c0-3.58985 2.91015-6.5 6.5-6.5zm-3.5 6h1v-1h-1zm6 0h1v-1h-1z" fill="#000"/></svg>