<svg width="130" height="130" viewBox="0 0 347 347" fill="none" xmlns="http://www.w3.org/2000/svg">
<path d="M180.291 0C126.195 0 91.1569 22.1639 63.6483 61.6914C58.6581 68.8619 60.1966 78.6931 67.1576 83.9713L96.3937 106.139C103.424 111.47 113.427 110.223 118.93 103.328C135.907 82.0601 148.5 69.8148 175.018 69.8148C195.868 69.8148 221.657 83.2332 221.657 103.451C221.657 118.736 209.039 126.585 188.452 138.127C164.445 151.587 132.676 168.338 132.676 210.241V216.875C132.676 225.858 139.958 233.141 148.941 233.141H198.057C207.041 233.141 214.323 225.858 214.323 216.875V212.962C214.323 183.915 299.221 182.705 299.221 104.1C299.222 44.904 237.818 0 180.291 0ZM173.5 253.106C147.613 253.106 126.552 274.167 126.552 300.053C126.552 325.939 147.613 347 173.5 347C199.386 347 220.447 325.939 220.447 300.053C220.447 274.166 199.386 253.106 173.5 253.106Z" fill="#6C63FF"/>
</svg>
